<?xml version="1.0" encoding="UTF-8" standalone="no"?>
<!DOCTYPE svg PUBLIC "-//W3C//DTD SVG 1.1//EN" "http://www.w3.org/Graphics/SVG/1.1/DTD/svg11.dtd">
<svg width="100%" height="100%" viewBox="0 0 1418 1418" version="1.1" xmlns="http://www.w3.org/2000/svg" xmlns:xlink="http://www.w3.org/1999/xlink" xml:space="preserve" xmlns:serif="http://www.serif.com/" style="fill-rule:evenodd;clip-rule:evenodd;stroke-linejoin:round;stroke-miterlimit:1.41421;">
    <g>
        <g>
            <g transform="matrix(1,0,0,1,359.022,186.164)">
                <path d="M397.676,672.724C397.676,635.225 367.232,604.781 329.734,604.781L193.849,604.781C156.35,604.781 125.906,635.225 125.906,672.724L125.906,1042.34C125.906,1079.84 156.35,1110.29 193.849,1110.29L329.734,1110.29C367.232,1110.29 397.676,1079.84 397.676,1042.34L397.676,672.724Z" style="fill:rgb(246,141,76);"/>
            </g>
            <g transform="matrix(1,0,0,1,-2.82672,-0.0724871)">
                <rect x="529.041" y="866.315" width="189.197" height="119.646"/>
            </g>
            <g transform="matrix(0.843089,0,0,1,389.414,168.848)">
                <rect x="74.899" y="1061.68" width="399.133" height="65.92" style="fill:rgb(145,146,148);"/>
            </g>
            <g transform="matrix(0.896748,0,0,0.5,373.426,732.648)">
                <rect x="74.899" y="1061.68" width="399.133" height="65.92" style="fill:rgb(145,146,148);"/>
            </g>
        </g>
        <g>
            <g transform="matrix(0.618436,0,0,0.912687,231.615,-102.508)">
                <path d="M798.513,1036.22C800.989,1036.13 803.478,1036.08 805.978,1036.08C902.786,1036.08 981.382,1109.31 981.382,1199.51C981.382,1289.7 902.786,1362.93 805.978,1362.93C754.891,1362.93 708.876,1342.54 676.807,1310.02L692.414,1310.02C721.92,1336.35 761.937,1352.54 805.978,1352.54C896.629,1352.54 970.225,1283.97 970.225,1199.51C970.225,1115.04 896.629,1046.47 805.978,1046.47C803.477,1046.47 800.988,1046.52 798.513,1046.63L798.513,1036.22Z"/>
            </g>
            <rect x="650.177" y="1082" width="10.845" height="12.752"/>
            <rect x="701.053" y="843.106" width="25.546" height="14.886"/>
            <g transform="matrix(1,0,0,0.634977,0,305.847)">
                <rect x="713.826" y="836.176" width="12.773" height="33.374"/>
            </g>
            <g transform="matrix(2.25893,0,0,0.317489,-925.854,579.775)">
                <rect x="713.826" y="836.176" width="12.773" height="33.374"/>
            </g>
        </g>
        <g transform="matrix(-0.181443,0.000504612,-0.000504612,-0.181443,667.989,1020.94)">
            <g transform="matrix(-0.999996,-0.00278109,0.00278109,-0.999996,518.72,2128.47)">
                <ellipse cx="264.637" cy="1051.51" rx="137.016" ry="141.488" style="fill:white;"/>
            </g>
            <g transform="matrix(1.05844,0,0,1.05844,-14.9565,-69.1062)">
                <path d="M153.771,1032.16C183.315,1010.91 221.999,998.029 264.318,998.029C301.266,998.029 335.442,1007.85 363.184,1024.48L255.872,1182.54L153.771,1032.16Z" style="fill:rgb(246,141,76);"/>
            </g>
            <path d="M153.771,1032.16C183.315,1010.91 221.999,998.029 264.318,998.029C301.266,998.029 335.442,1007.85 363.184,1024.48L255.872,1182.54L153.771,1032.16Z" style="fill:rgb(255,242,115);"/>
            <g transform="matrix(1,0,0,1,1.00654,20.164)">
                <path d="M253.175,1087.88L253.175,992.039L258.564,992.039L258.564,992.265L258.569,992.265L258.569,1087.66L275.341,992.541L280.647,993.477L263.867,1088.64L296.833,998.069L301.896,999.912L269.7,1088.37L316.998,1006.45L321.665,1009.14L275.473,1089.15L335.224,1017.94L339.352,1021.4L259.959,1116.02L259.088,1117.53L258.569,1118.95L258.569,1119.91L253.986,1119.91L253.506,1120.09L253.442,1119.91L253.181,1119.91L253.181,1119.68L253.175,1119.68L253.175,1119.18L252.656,1117.75L251.785,1116.24L172.392,1021.63L176.52,1018.16L236.271,1089.37L190.08,1009.37L194.746,1006.67L242.044,1088.59L209.848,1000.14L214.911,998.295L247.877,1088.87L231.097,993.702L236.403,992.767L253.175,1087.88Z" style="fill:rgb(246,141,76);"/>
            </g>
            <path d="M216.558,1124.63C227.935,1116.45 242.831,1111.49 259.128,1111.49C273.356,1111.49 286.517,1115.27 297.199,1121.67L255.875,1182.54L216.558,1124.63Z" style="fill:rgb(246,141,76);"/>
        </g>
        <g>
            <g transform="matrix(1.32047,0,0,1.60204,-173.84,-668.089)">
                <path d="M540.222,1117.42L562.822,1154.81L517.622,1154.81L540.222,1117.42Z" style="fill:rgb(241,97,69);"/>
            </g>
            <g transform="matrix(1,0,0,1,1.89486,4.08193)">
                <path d="M536.235,1163.21L534.892,1144.24L534.892,1136.3L540.337,1136.3L540.337,1144.24L539.067,1163.21L536.235,1163.21ZM535.088,1172.09L535.088,1167.09L540.142,1167.09L540.142,1172.09L535.088,1172.09Z" style="fill-rule:nonzero;"/>
            </g>
        </g>
    </g>
</svg>
